<svg width="500" height="500" viewBox="0 0 500 500" fill="none" xmlns="http://www.w3.org/2000/svg">
<path d="M441.86 74V402.98C441.86 408.51 437.38 412.98 431.86 412.98H109C103.48 412.98 99 408.51 99 402.98V74C99 68.47 103.48 64 109 64H431.86C437.38 64 441.86 68.47 441.86 74Z" fill="white"/>
<path d="M153.307 324.624H147.73C141.049 324.624 135.614 330.059 135.614 336.739V353.953C135.614 360.634 141.049 366.068 147.73 366.068H153.307C159.987 366.068 165.422 360.633 165.422 353.953V336.739C165.422 330.058 159.987 324.624 153.307 324.624ZM155.422 353.953C155.422 355.119 154.473 356.068 153.307 356.068H147.73C146.563 356.068 145.614 355.119 145.614 353.953V336.739C145.614 335.573 146.563 334.624 147.73 334.624H153.307C154.474 334.624 155.422 335.573 155.422 336.739V353.953Z" fill="#102031"/>
<path d="M183.448 324.624H177.753C174.992 324.624 172.753 326.862 172.753 329.624C172.753 332.386 174.992 334.624 177.753 334.624H178.448V361.068C178.448 363.83 180.687 366.068 183.448 366.068C186.209 366.068 188.448 363.83 188.448 361.068V329.624C188.448 326.862 186.209 324.624 183.448 324.624Z" fill="#102031"/>
<path d="M210.203 324.624H204.508C201.747 324.624 199.508 326.862 199.508 329.624C199.508 332.386 201.747 334.624 204.508 334.624H205.203V361.068C205.203 363.83 207.442 366.068 210.203 366.068C212.964 366.068 215.203 363.83 215.203 361.068V329.624C215.203 326.862 212.964 324.624 210.203 324.624Z" fill="#102031"/>
<path d="M153.307 164.517H147.73C141.049 164.517 135.614 169.952 135.614 176.632V193.845C135.614 200.526 141.049 205.961 147.73 205.961H153.307C159.987 205.961 165.422 200.525 165.422 193.845V176.632C165.422 169.952 159.987 164.517 153.307 164.517ZM155.422 193.846C155.422 195.013 154.473 195.962 153.307 195.962H147.73C146.563 195.962 145.614 195.013 145.614 193.846V176.633C145.614 175.467 146.563 174.518 147.73 174.518H153.307C154.474 174.518 155.422 175.467 155.422 176.633V193.846Z" fill="#102031"/>
<path d="M244.185 164.517H238.608C231.928 164.517 226.493 169.952 226.493 176.632V193.845C226.493 200.526 231.928 205.961 238.608 205.961H244.185C250.866 205.961 256.301 200.525 256.301 193.845V176.632C256.301 169.952 250.866 164.517 244.185 164.517ZM246.301 193.846C246.301 195.013 245.352 195.962 244.185 195.962H238.608C237.441 195.962 236.493 195.013 236.493 193.846V176.633C236.493 175.467 237.442 174.518 238.608 174.518H244.185C245.352 174.518 246.301 175.467 246.301 176.633V193.846Z" fill="#102031"/>
<path d="M283.428 164.517H277.851C271.171 164.517 265.736 169.952 265.736 176.632V193.845C265.736 200.526 271.171 205.961 277.851 205.961H283.428C290.108 205.961 295.543 200.525 295.543 193.845V176.632C295.543 169.952 290.108 164.517 283.428 164.517ZM285.543 193.846C285.543 195.013 284.594 195.962 283.428 195.962H277.851C276.684 195.962 275.736 195.013 275.736 193.846V176.633C275.736 175.467 276.685 174.518 277.851 174.518H283.428C284.595 174.518 285.543 175.467 285.543 176.633V193.846Z" fill="#102031"/>
<path d="M177.753 174.517H178.448V200.961C178.448 203.723 180.687 205.961 183.448 205.961C186.209 205.961 188.448 203.723 188.448 200.961V169.517C188.448 166.755 186.209 164.517 183.448 164.517H177.753C174.992 164.517 172.753 166.755 172.753 169.517C172.753 172.279 174.992 174.517 177.753 174.517Z" fill="#102031"/>
<path d="M204.508 174.517H205.203V200.961C205.203 203.723 207.442 205.961 210.203 205.961C212.964 205.961 215.203 203.723 215.203 200.961V169.517C215.203 166.755 212.964 164.517 210.203 164.517H204.508C201.747 164.517 199.508 166.755 199.508 169.517C199.508 172.279 201.747 174.517 204.508 174.517Z" fill="#102031"/>
<path d="M344.752 205.962H350.329C357.01 205.962 362.445 200.526 362.445 193.846V176.633C362.445 169.952 357.01 164.518 350.329 164.518H344.752C338.072 164.518 332.637 169.953 332.637 176.633V193.846C332.637 200.526 338.072 205.962 344.752 205.962ZM342.637 176.633C342.637 175.467 343.586 174.518 344.752 174.518H350.329C351.496 174.518 352.445 175.467 352.445 176.633V193.846C352.445 195.013 351.496 195.962 350.329 195.962H344.752C343.585 195.962 342.637 195.013 342.637 193.846V176.633Z" fill="#102031"/>
<path d="M389.571 164.517H383.994C377.314 164.517 371.879 169.952 371.879 176.632V193.845C371.879 200.526 377.314 205.961 383.994 205.961H389.571C396.252 205.961 401.687 200.525 401.687 193.845V176.632C401.686 169.952 396.251 164.517 389.571 164.517ZM391.686 193.846C391.686 195.013 390.737 195.962 389.57 195.962H383.993C382.826 195.962 381.878 195.013 381.878 193.846V176.633C381.878 175.467 382.827 174.518 383.993 174.518H389.57C390.737 174.518 391.686 175.467 391.686 176.633V193.846Z" fill="#102031"/>
<path d="M310.651 174.517H311.346V200.961C311.346 203.723 313.585 205.961 316.346 205.961C319.107 205.961 321.346 203.723 321.346 200.961V169.517C321.346 166.755 319.107 164.517 316.346 164.517H310.651C307.89 164.517 305.651 166.755 305.651 169.517C305.651 172.279 307.89 174.517 310.651 174.517Z" fill="#102031"/>
<path d="M153.307 217.886H147.73C141.049 217.886 135.614 223.322 135.614 230.002V247.215C135.614 253.896 141.049 259.331 147.73 259.331H153.307C159.987 259.331 165.422 253.895 165.422 247.215V230.002C165.422 223.321 159.987 217.886 153.307 217.886ZM155.422 247.215C155.422 248.382 154.473 249.331 153.307 249.331H147.73C146.563 249.331 145.614 248.382 145.614 247.215V230.002C145.614 228.835 146.563 227.886 147.73 227.886H153.307C154.474 227.886 155.422 228.835 155.422 230.002V247.215Z" fill="#102031"/>
<path d="M244.185 217.886H238.608C231.928 217.886 226.493 223.322 226.493 230.002V247.215C226.493 253.896 231.928 259.331 238.608 259.331H244.185C250.866 259.331 256.301 253.895 256.301 247.215V230.002C256.301 223.321 250.866 217.886 244.185 217.886ZM246.301 247.215C246.301 248.382 245.352 249.331 244.185 249.331H238.608C237.441 249.331 236.493 248.382 236.493 247.215V230.002C236.493 228.835 237.442 227.886 238.608 227.886H244.185C245.352 227.886 246.301 228.835 246.301 230.002V247.215Z" fill="#102031"/>
<path d="M283.428 217.886H277.851C271.171 217.886 265.736 223.322 265.736 230.002V247.215C265.736 253.896 271.171 259.331 277.851 259.331H283.428C290.108 259.331 295.543 253.895 295.543 247.215V230.002C295.543 223.321 290.108 217.886 283.428 217.886ZM285.543 247.215C285.543 248.382 284.594 249.331 283.428 249.331H277.851C276.684 249.331 275.736 248.382 275.736 247.215V230.002C275.736 228.835 276.685 227.886 277.851 227.886H283.428C284.595 227.886 285.543 228.835 285.543 230.002V247.215Z" fill="#102031"/>
<path d="M177.753 227.886H178.448V254.331C178.448 257.093 180.687 259.331 183.448 259.331C186.209 259.331 188.448 257.093 188.448 254.331V222.886C188.448 220.124 186.209 217.886 183.448 217.886H177.753C174.992 217.886 172.753 220.124 172.753 222.886C172.753 225.648 174.992 227.886 177.753 227.886Z" fill="#102031"/>
<path d="M204.508 227.886H205.203V254.331C205.203 257.093 207.442 259.331 210.203 259.331C212.964 259.331 215.203 257.093 215.203 254.331V222.886C215.203 220.124 212.964 217.886 210.203 217.886H204.508C201.747 217.886 199.508 220.124 199.508 222.886C199.508 225.648 201.747 227.886 204.508 227.886Z" fill="#102031"/>
<path d="M344.893 230.002V247.215C344.893 253.896 350.328 259.331 357.009 259.331H362.586C369.266 259.331 374.701 253.895 374.701 247.215V230.002C374.701 223.321 369.266 217.886 362.586 217.886H357.009C350.329 217.886 344.893 223.321 344.893 230.002ZM364.701 230.002V247.215C364.701 248.382 363.752 249.331 362.586 249.331H357.009C355.842 249.331 354.893 248.382 354.893 247.215V230.002C354.893 228.835 355.842 227.886 357.009 227.886H362.586C363.752 227.886 364.701 228.835 364.701 230.002Z" fill="#102031"/>
<path d="M317.767 259.331H323.344C330.024 259.331 335.459 253.895 335.459 247.215V230.002C335.459 223.321 330.024 217.886 323.344 217.886H317.767C311.086 217.886 305.651 223.322 305.651 230.002V247.215C305.651 253.895 311.086 259.331 317.767 259.331ZM315.651 230.002C315.651 228.835 316.6 227.886 317.767 227.886H323.344C324.511 227.886 325.459 228.835 325.459 230.002V247.215C325.459 248.382 324.51 249.331 323.344 249.331H317.767C316.6 249.331 315.651 248.382 315.651 247.215V230.002Z" fill="#102031"/>
<path d="M396.686 217.886H390.991C388.23 217.886 385.991 220.124 385.991 222.886C385.991 225.648 388.23 227.886 390.991 227.886H391.686V254.331C391.686 257.093 393.925 259.331 396.686 259.331C399.447 259.331 401.686 257.093 401.686 254.331V222.886C401.686 220.124 399.448 217.886 396.686 217.886Z" fill="#102031"/>
<path d="M153.307 271.255H147.73C141.049 271.255 135.614 276.691 135.614 283.371V300.584C135.614 307.265 141.049 312.699 147.73 312.699H153.307C159.987 312.699 165.422 307.264 165.422 300.584V283.371C165.422 276.69 159.987 271.255 153.307 271.255ZM155.422 300.584C155.422 301.75 154.473 302.699 153.307 302.699H147.73C146.563 302.699 145.614 301.75 145.614 300.584V283.371C145.614 282.204 146.563 281.255 147.73 281.255H153.307C154.474 281.255 155.422 282.204 155.422 283.371V300.584Z" fill="#102031"/>
<path d="M283.428 271.255H277.851C271.171 271.255 265.736 276.691 265.736 283.371V300.584C265.736 307.265 271.171 312.699 277.851 312.699H283.428C290.108 312.699 295.543 307.264 295.543 300.584V283.371C295.543 276.69 290.108 271.255 283.428 271.255ZM285.543 300.584C285.543 301.75 284.594 302.699 283.428 302.699H277.851C276.684 302.699 275.736 301.75 275.736 300.584V283.371C275.736 282.204 276.685 281.255 277.851 281.255H283.428C284.595 281.255 285.543 282.204 285.543 283.371V300.584Z" fill="#102031"/>
<path d="M187.448 271.255H181.753C178.992 271.255 176.753 273.493 176.753 276.255C176.753 279.017 178.992 281.255 181.753 281.255H182.448V307.699C182.448 310.461 184.687 312.699 187.448 312.699C190.209 312.699 192.448 310.461 192.448 307.699V276.255C192.448 273.493 190.209 271.255 187.448 271.255Z" fill="#102031"/>
<path d="M216.203 271.255H210.508C207.747 271.255 205.508 273.493 205.508 276.255C205.508 279.017 207.747 281.255 210.508 281.255H211.203V307.699C211.203 310.461 213.442 312.699 216.203 312.699C218.964 312.699 221.203 310.461 221.203 307.699V276.255C221.203 273.493 218.964 271.255 216.203 271.255Z" fill="#102031"/>
<path d="M245.271 312.699C248.032 312.699 250.271 310.461 250.271 307.699V276.255C250.271 273.493 248.032 271.255 245.271 271.255H239.576C236.815 271.255 234.576 273.493 234.576 276.255C234.576 279.017 236.815 281.255 239.576 281.255H240.271V307.699C240.271 310.461 242.51 312.699 245.271 312.699Z" fill="#102031"/>
<path d="M362.444 300.584V283.371C362.444 276.69 357.009 271.255 350.328 271.255H344.751C338.071 271.255 332.636 276.691 332.636 283.371V300.584C332.636 307.265 338.071 312.699 344.751 312.699H350.328C357.009 312.699 362.444 307.264 362.444 300.584ZM342.637 300.584V283.371C342.637 282.204 343.586 281.255 344.752 281.255H350.329C351.496 281.255 352.445 282.204 352.445 283.371V300.584C352.445 301.75 351.496 302.699 350.329 302.699H344.752C343.585 302.699 342.637 301.75 342.637 300.584Z" fill="#102031"/>
<path d="M389.571 271.255H383.994C377.314 271.255 371.879 276.691 371.879 283.371V300.584C371.879 307.265 377.314 312.699 383.994 312.699H389.571C396.252 312.699 401.687 307.264 401.687 300.584V283.371C401.686 276.69 396.251 271.255 389.571 271.255ZM391.686 300.584C391.686 301.75 390.737 302.699 389.57 302.699H383.993C382.826 302.699 381.878 301.75 381.878 300.584V283.371C381.878 282.204 382.827 281.255 383.993 281.255H389.57C390.737 281.255 391.686 282.204 391.686 283.371V300.584Z" fill="#102031"/>
<path d="M310.651 281.255H311.346V307.699C311.346 310.461 313.585 312.699 316.346 312.699C319.107 312.699 321.346 310.461 321.346 307.699V276.255C321.346 273.493 319.107 271.255 316.346 271.255H310.651C307.89 271.255 305.651 273.493 305.651 276.255C305.651 279.017 307.89 281.255 310.651 281.255Z" fill="#102031"/>
<path d="M244.185 324.624H238.608C231.928 324.624 226.493 330.059 226.493 336.739V353.953C226.493 360.634 231.928 366.068 238.608 366.068H244.185C250.866 366.068 256.301 360.633 256.301 353.953V336.739C256.301 330.058 250.866 324.624 244.185 324.624ZM246.301 353.953C246.301 355.119 245.352 356.068 244.185 356.068H238.608C237.441 356.068 236.493 355.119 236.493 353.953V336.739C236.493 335.573 237.442 334.624 238.608 334.624H244.185C245.352 334.624 246.301 335.573 246.301 336.739V353.953Z" fill="#102031"/>
<path d="M283.428 324.624H277.851C271.171 324.624 265.736 330.059 265.736 336.739V353.953C265.736 360.634 271.171 366.068 277.851 366.068H283.428C290.108 366.068 295.543 360.633 295.543 353.953V336.739C295.543 330.058 290.108 324.624 283.428 324.624ZM285.543 353.953C285.543 355.119 284.594 356.068 283.428 356.068H277.851C276.684 356.068 275.736 355.119 275.736 353.953V336.739C275.736 335.573 276.685 334.624 277.851 334.624H283.428C284.595 334.624 285.543 335.573 285.543 336.739V353.953Z" fill="#102031"/>
<path d="M362.586 324.624H357.009C350.328 324.624 344.893 330.059 344.893 336.739V353.953C344.893 360.634 350.328 366.068 357.009 366.068H362.586C369.266 366.068 374.701 360.633 374.701 353.953V336.739C374.701 330.058 369.266 324.624 362.586 324.624ZM364.701 353.953C364.701 355.119 363.752 356.068 362.586 356.068H357.009C355.842 356.068 354.893 355.119 354.893 353.953V336.739C354.893 335.573 355.842 334.624 357.009 334.624H362.586C363.753 334.624 364.701 335.573 364.701 336.739V353.953Z" fill="#102031"/>
<path d="M323.344 324.624H317.767C311.086 324.624 305.651 330.059 305.651 336.739V353.953C305.651 360.634 311.086 366.068 317.767 366.068H323.344C330.024 366.068 335.459 360.633 335.459 353.953V336.739C335.459 330.058 330.024 324.624 323.344 324.624ZM325.459 353.953C325.459 355.119 324.51 356.068 323.344 356.068H317.767C316.6 356.068 315.651 355.119 315.651 353.953V336.739C315.651 335.573 316.6 334.624 317.767 334.624H323.344C324.511 334.624 325.459 335.573 325.459 336.739V353.953Z" fill="#102031"/>
<path d="M396.686 324.624H390.991C388.23 324.624 385.991 326.862 385.991 329.624C385.991 332.386 388.23 334.624 390.991 334.624H391.686V361.068C391.686 363.83 393.925 366.068 396.686 366.068C399.447 366.068 401.686 363.83 401.686 361.068V329.624C401.686 326.862 399.448 324.624 396.686 324.624Z" fill="#102031"/>
<path d="M442.197 119.046V73.9988C442.197 68.4758 437.72 63.9988 432.197 63.9988H109.345C103.822 63.9988 99.3452 68.4758 99.3452 73.9988V119.046H442.197Z" fill="#364B62"/>
<path d="M411.297 119.046H328.666L331.028 107.516C331.981 102.863 336.075 99.5228 340.825 99.5228H399.138C403.887 99.5228 407.981 102.863 408.934 107.516L411.297 119.046Z" fill="#102031"/>
<path d="M168.142 99.5217C170.904 99.5217 173.142 97.2832 173.142 94.5217C173.142 91.7603 170.904 89.5217 168.142 89.5217C165.381 89.5217 163.142 91.7603 163.142 94.5217C163.142 97.2832 165.381 99.5217 168.142 99.5217Z" fill="#23F1A8"/>
<path d="M150.44 99.5217C153.202 99.5217 155.44 97.2832 155.44 94.5217C155.44 91.7603 153.202 89.5217 150.44 89.5217C147.679 89.5217 145.44 91.7603 145.44 94.5217C145.44 97.2832 147.679 99.5217 150.44 99.5217Z" fill="#EBA12A"/>
<path d="M132.737 99.5217C135.499 99.5217 137.737 97.2832 137.737 94.5217C137.737 91.7603 135.499 89.5217 132.737 89.5217C129.976 89.5217 127.737 91.7603 127.737 94.5217C127.737 97.2832 129.976 99.5217 132.737 99.5217Z" fill="#F34957"/>
<path d="M331.726 119.042L329.364 107.515C328.411 102.862 324.317 99.5217 319.567 99.5217H261.254C256.505 99.5217 252.411 102.862 251.458 107.515L249.096 119.042H99.3462V138.242H442.196V119.042H331.726Z" fill="#23F1A8"/>
<path d="M130.186 457.835C114.79 448.997 77.4322 422.428 63.0942 366.748C57.9982 346.959 57.8272 323.875 58.5812 307.994L58.8962 301.366C59.0802 297.496 62.1472 294.384 66.0142 294.144L72.6372 293.734C85.3552 292.946 110.03 290.374 132.391 281.997L134.988 281.024C136.706 280.38 138.6 280.38 140.318 281.024L142.915 281.997C165.277 290.375 189.952 292.947 202.669 293.735L209.292 294.145C213.159 294.385 216.226 297.496 216.41 301.367L216.724 307.995C217.478 323.876 217.307 346.961 212.211 366.749C197.874 422.429 160.516 448.998 145.12 457.836L141.434 459.952C139.092 461.296 136.212 461.296 133.87 459.952L130.186 457.835Z" fill="#178672"/>
<path d="M137.654 444.826C124.533 437.294 90.6201 413.489 77.6211 363.007C72.8051 344.305 72.9561 321.541 73.5651 308.705C88.6461 307.771 114.055 304.884 137.654 296.043C161.253 304.884 186.662 307.771 201.743 308.705C202.352 321.541 202.503 344.304 197.687 363.007C184.688 413.488 150.774 437.294 137.654 444.826Z" fill="#23F1A8"/>
<path opacity="0.2" d="M159.195 428.739C150.546 436.808 142.616 441.979 137.654 444.825C132.692 441.98 124.763 436.808 116.113 428.739C121.245 422.555 128.987 418.614 137.654 418.614C146.321 418.615 154.062 422.555 159.195 428.739Z" fill="#102031"/>
<path d="M124.781 356.131V337.903C124.781 330.805 130.556 325.03 137.654 325.03C144.752 325.03 150.527 330.805 150.527 337.903V356.131H162.313V337.903C162.313 324.306 151.251 313.244 137.654 313.244C124.057 313.244 112.995 324.306 112.995 337.903V356.131H124.781Z" fill="#102031"/>
<path d="M161.418 403.905H113.889C110.495 403.905 107.743 401.153 107.743 397.759V358.546C107.743 355.151 110.495 352.4 113.889 352.4H161.418C164.812 352.4 167.564 355.152 167.564 358.546V397.759C167.564 401.153 164.813 403.905 161.418 403.905Z" fill="#102031"/>
<path d="M145.382 376.678C145.382 372.246 141.651 368.685 137.159 368.966C133.389 369.201 130.29 372.214 129.958 375.977C129.675 379.19 131.36 382.04 133.942 383.457V390.647C133.942 392.697 135.604 394.359 137.654 394.359C139.704 394.359 141.366 392.697 141.366 390.647V383.457C143.759 382.143 145.382 379.6 145.382 376.678Z" fill="#23F1A8"/>
<path d="M118.589 365.301C120.094 365.301 121.313 364.081 121.313 362.577C121.313 361.072 120.094 359.853 118.589 359.853C117.085 359.853 115.865 361.072 115.865 362.577C115.865 364.081 117.085 365.301 118.589 365.301Z" fill="#23F1A8"/>
<path d="M156.718 365.301C158.223 365.301 159.442 364.081 159.442 362.577C159.442 361.072 158.223 359.853 156.718 359.853C155.214 359.853 153.994 361.072 153.994 362.577C153.994 364.081 155.214 365.301 156.718 365.301Z" fill="#23F1A8"/>
<path d="M432.197 58.9988H109.345C101.074 58.9988 94.3452 65.7278 94.3452 73.9988V286.382C85.5422 287.728 77.8032 288.404 72.3282 288.743L65.7042 289.153C59.2812 289.551 54.2072 294.7 53.9022 301.128L53.5882 307.756C52.8172 323.981 53.0022 347.603 58.2532 367.994C73.0652 425.515 111.752 453.016 127.697 462.171L131.384 464.288C133.318 465.397 135.486 465.952 137.654 465.952C139.822 465.952 141.991 465.397 143.925 464.287L147.612 462.171C163.558 453.017 202.244 425.515 217.055 367.994C222.307 347.602 222.491 323.981 221.721 307.756L221.407 301.128C221.102 294.7 216.029 289.552 209.604 289.153L202.98 288.743C190.542 287.972 166.426 285.465 144.67 277.313L142.075 276.341C139.223 275.273 136.084 275.272 133.236 276.34L130.638 277.313C121.951 280.567 112.89 282.92 104.345 284.624V73.9988C104.345 71.2418 106.588 68.9988 109.345 68.9988H432.197C434.954 68.9988 437.197 71.2418 437.197 73.9988V162.586C437.197 165.348 439.436 167.586 442.197 167.586C444.958 167.586 447.197 165.348 447.197 162.586V73.9988C447.197 65.7268 440.468 58.9988 432.197 58.9988ZM134.145 286.679L136.745 285.705C137.038 285.595 137.346 285.54 137.653 285.54C137.962 285.54 138.27 285.596 138.565 285.706L141.161 286.679C164.134 295.285 189.366 297.92 202.361 298.724L208.984 299.134C210.308 299.216 211.355 300.278 211.418 301.603L211.732 308.231C212.469 323.768 212.312 346.317 207.371 365.501C193.508 419.339 157.48 444.977 142.633 453.5L138.947 455.615C138.149 456.074 137.158 456.073 136.361 455.616L132.675 453.5C117.828 444.977 81.7992 419.339 67.9362 365.501C62.9962 346.316 62.8382 323.769 63.5762 308.231L63.8902 301.603C63.9532 300.278 64.9992 299.216 66.3232 299.134L72.9462 298.724C85.9402 297.92 111.169 295.285 134.145 286.679Z" fill="#23F1A8"/>
<path d="M432.197 417.985H223.543C220.782 417.985 218.543 415.747 218.543 412.985C218.543 410.223 220.782 407.985 223.543 407.985H432.197C434.954 407.985 437.197 405.742 437.197 402.985V191.395C437.197 188.633 439.436 186.395 442.197 186.395C444.958 186.395 447.197 188.633 447.197 191.395V402.985C447.197 411.257 440.468 417.985 432.197 417.985Z" fill="#23F1A8"/>
</svg>
